<?xml version="1.0" encoding="utf-8"?>
<!-- Generator: Adobe Illustrator 16.0.0, SVG Export Plug-In . SVG Version: 6.00 Build 0)  -->
<!DOCTYPE svg PUBLIC "-//W3C//DTD SVG 1.1//EN" "http://www.w3.org/Graphics/SVG/1.1/DTD/svg11.dtd">
<svg version="1.1" id="Layer_1" xmlns="http://www.w3.org/2000/svg" xmlns:xlink="http://www.w3.org/1999/xlink" x="0px" y="0px"
	 width="120px" height="120px" viewBox="0 0 120 120" enable-background="new 0 0 120 120" xml:space="preserve">
<g>
	<path fill="#FFB901" d="M59.89,4.25c-22.683,0-41.138,18.455-41.138,41.138c0,34.083,36.59,66.103,38.147,67.45
		c0.86,0.742,1.925,1.112,2.99,1.112s2.129-0.37,2.99-1.112c1.558-1.348,38.147-33.367,38.147-67.45
		C101.027,22.705,82.572,4.25,59.89,4.25z M59.888,103.143c-8.47-8.168-31.993-33.078-31.993-57.755
		c0-17.643,14.353-31.995,31.995-31.995c17.643,0,31.995,14.353,31.995,31.995C91.885,70.018,68.355,94.963,59.888,103.143z
		 M59.89,27.105c-10.08,0-18.283,8.203-18.283,18.283c0,10.08,8.203,18.282,18.283,18.282c10.081,0,18.282-8.203,18.282-18.282
		C78.172,35.308,69.973,27.105,59.89,27.105z M59.89,54.527c-5.04,0-9.143-4.1-9.143-9.143c0-5.042,4.1-9.142,9.143-9.142
		s9.143,4.1,9.143,9.142C69.033,50.428,64.93,54.527,59.89,54.527z"/>
</g>
</svg>
