<?xml version="1.0" encoding="utf-8"?>
<!-- Generator: Adobe Illustrator 16.0.0, SVG Export Plug-In . SVG Version: 6.00 Build 0)  -->
<!DOCTYPE svg PUBLIC "-//W3C//DTD SVG 1.1//EN" "http://www.w3.org/Graphics/SVG/1.1/DTD/svg11.dtd">
<svg version="1.1" id="Layer_1" xmlns="http://www.w3.org/2000/svg" xmlns:xlink="http://www.w3.org/1999/xlink" x="0px" y="0px"
	 width="120px" height="120px" viewBox="0 0 120 120" enable-background="new 0 0 120 120" xml:space="preserve">
<path fill="#FFB901" d="M114.045,32.833c0-3.66-1.475-6.975-3.856-9.398c-0.027-0.027-0.047-0.064-0.074-0.091
	c-0.028-0.028-0.061-0.047-0.092-0.075c-2.423-2.381-5.741-3.856-9.398-3.856H20.104c-3.66,0-6.975,1.475-9.398,3.856
	c-0.027,0.027-0.064,0.047-0.091,0.075c-0.028,0.027-0.047,0.061-0.075,0.091c-2.381,2.423-3.856,5.741-3.856,9.398v53.679
	c0,3.669,1.483,6.995,3.876,9.421c0.019,0.021,0.033,0.047,0.055,0.069c0.022,0.021,0.047,0.036,0.069,0.055
	c2.426,2.393,5.752,3.876,9.42,3.876h80.521c3.668,0,6.995-1.483,9.421-3.876c0.021-0.019,0.047-0.033,0.069-0.055
	c0.021-0.022,0.035-0.048,0.055-0.069c2.393-2.426,3.876-5.752,3.876-9.421V32.833L114.045,32.833z M15.631,34.685l24.987,24.987
	L15.631,84.658V34.685z M60.365,66.767L21.958,28.358h76.814L60.365,66.767z M46.945,65.997l10.257,10.258
	c0.873,0.874,2.018,1.313,3.163,1.313c1.145,0,2.291-0.438,3.163-1.313l10.258-10.258l24.986,24.987H21.955L46.945,65.997z
	 M80.109,59.672l24.986-24.987V84.66L80.109,59.672z"/>
</svg>
