<?xml version="1.0" encoding="utf-8"?>
<!-- Generator: Adobe Illustrator 16.0.0, SVG Export Plug-In . SVG Version: 6.00 Build 0)  -->
<!DOCTYPE svg PUBLIC "-//W3C//DTD SVG 1.1//EN" "http://www.w3.org/Graphics/SVG/1.1/DTD/svg11.dtd">
<svg version="1.1" id="Layer_1" xmlns="http://www.w3.org/2000/svg" xmlns:xlink="http://www.w3.org/1999/xlink" x="0px" y="0px"
	 width="120px" height="120px" viewBox="0 0 120 120" enable-background="new 0 0 120 120" xml:space="preserve">
<path fill="#FFB901" d="M60.05,6.16C30.303,6.16,6.1,30.36,6.1,60.11c0,29.75,24.2,53.951,53.95,53.951S114,89.857,114,60.11
	S89.8,6.16,60.05,6.16z M104.779,55.612H86.933c-0.565-15.017-3.94-27.938-9.153-36.805C92.465,25.138,103.13,39.063,104.779,55.612
	z M60.05,105.067c-7.985,0-16.857-17.022-17.88-40.462h35.76C76.908,88.045,68.037,105.067,60.05,105.067z M42.17,55.612
	c1.022-23.44,9.895-40.462,17.88-40.462c7.985,0,16.858,17.022,17.88,40.462H42.17z M42.32,18.81
	c-5.212,8.865-8.587,21.785-9.152,36.805H15.32C16.973,39.063,27.638,25.138,42.32,18.81z M15.32,64.605h17.848
	c0.565,15.018,3.94,27.938,9.152,36.805C27.638,95.08,16.973,81.154,15.32,64.605z M77.779,101.41
	c5.213-8.865,8.588-21.785,9.153-36.805h17.847C103.13,81.154,92.465,95.08,77.779,101.41z"/>
</svg>
