<?xml version="1.0" encoding="utf-8"?>
<!-- Generator: Adobe Illustrator 16.0.0, SVG Export Plug-In . SVG Version: 6.00 Build 0)  -->
<!DOCTYPE svg PUBLIC "-//W3C//DTD SVG 1.1//EN" "http://www.w3.org/Graphics/SVG/1.1/DTD/svg11.dtd">
<svg version="1.1" id="Layer_1" xmlns="http://www.w3.org/2000/svg" xmlns:xlink="http://www.w3.org/1999/xlink" x="0px" y="0px"
	 width="120px" height="120px" viewBox="0 0 120 120" enable-background="new 0 0 120 120" xml:space="preserve">
<path fill="#FFB901" d="M8.201,82.812c0,4.393,1.688,8.524,4.757,11.63l8.325,8.43c5.18,5.249,12.156,8.142,19.274,8.142
	c1.454,0,2.916-0.121,4.37-0.369c33.153-5.621,59.159-31.956,64.709-65.53c1.434-8.675-1.438-17.625-7.678-23.944l-8.325-8.43
	c-3.065-3.108-7.145-4.817-11.483-4.817c-6.353,0-12.156,3.784-14.785,9.642c-4.863,10.833-1.033,23.661,8.688,30.032
	c-6.348,12.479-16.353,22.61-28.675,29.04c-6.29-9.842-18.954-13.723-29.655-8.799C11.938,70.5,8.201,76.376,8.201,82.812z
	 M16.684,82.812c0-3.074,1.786-5.883,4.549-7.152c7.218-3.324,15.835-0.397,19.619,6.662l1.054,1.97
	c1.058,1.971,3.429,2.785,5.451,1.878c17.013-7.657,30.546-21.365,38.11-38.593c0.898-2.049,0.092-4.452-1.854-5.522l-1.943-1.068
	c-6.973-3.829-9.862-12.556-6.581-19.866c1.257-2.797,4.028-4.607,7.063-4.607c2.072,0,4.021,0.818,5.485,2.301l8.325,8.431
	c4.308,4.36,6.29,10.51,5.31,16.453c-4.954,29.961-28.16,53.458-57.745,58.475c-5.863,0.994-11.938-1.015-16.245-5.374l-8.325-8.431
	C17.491,86.884,16.684,84.909,16.684,82.812z"/>
</svg>
