<?xml version="1.0" encoding="utf-8"?>
<!-- Generator: Adobe Illustrator 16.0.0, SVG Export Plug-In . SVG Version: 6.00 Build 0)  -->
<!DOCTYPE svg PUBLIC "-//W3C//DTD SVG 1.1//EN" "http://www.w3.org/Graphics/SVG/1.1/DTD/svg11.dtd">
<svg version="1.1" id="Capa_1" xmlns="http://www.w3.org/2000/svg" xmlns:xlink="http://www.w3.org/1999/xlink" x="0px" y="0px"
	 width="512px" height="512px" viewBox="0 0 512 512" enable-background="new 0 0 512 512" xml:space="preserve">
<g>
	<path fill="#222783" d="M435.604,327.411l0.525,0.041c40.995,2.409,75.777-30.072,75.777-71.452
		c0-41.066-34.465-73.88-75.777-71.451l-86.225,8.112L264.672,0h-87.179l30.187,201.655l-86.663,6.47L82.933,151H0.094l35,105
		l-35,105h82.839l38.084-57.125l86.662,6.471L177.493,512h87.179l85.232-192.661L435.604,327.411z M245.139,482h-32.82
		l29.813-199.167l-136.355-10.179L66.878,331H41.717l25-75l-25-75h25.161l38.898,58.346l136.355-10.179L212.318,30h32.82
		l86.07,194.556l106.926-10.073c23.729-1.261,43.771,17.587,43.771,41.517c0,23.805-19.915,42.785-43.772,41.518L331.21,287.443
		L245.139,482z"/>
</g>
</svg>
