<?xml version="1.0" encoding="utf-8"?>
<!-- Generator: Adobe Illustrator 16.0.0, SVG Export Plug-In . SVG Version: 6.00 Build 0)  -->
<!DOCTYPE svg PUBLIC "-//W3C//DTD SVG 1.1//EN" "http://www.w3.org/Graphics/SVG/1.1/DTD/svg11.dtd">
<svg version="1.1" id="Layer_1" xmlns="http://www.w3.org/2000/svg" xmlns:xlink="http://www.w3.org/1999/xlink" x="0px" y="0px"
	 width="512px" height="512px" viewBox="0 0 512 512" enable-background="new 0 0 512 512" xml:space="preserve">
<g>
	<g>
		<g>
			<path fill="#232784" d="M256,10.927L4,111.727v388.664h94.5V248.39h315v252.001H508V111.727L256,10.927z M476.5,468.891H445
				V216.89H67v252.001H35.5V133.053l220.5-88.2l220.5,88.2V468.891z"/>
			<path fill="#232784" d="M256,374.391h-94.5v126H382v-220.5H256V374.391z M256,468.891h-63v-63h63V468.891z M287.5,311.391h63v63
				h-63V311.391z M287.5,405.891h63v63h-63V405.891z"/>
			<rect x="145.75" y="138.14" fill="#232784" width="31.5" height="31.5"/>
			<rect x="208.75" y="138.14" fill="#232784" width="94.5" height="31.5"/>
			<rect x="334.75" y="138.14" fill="#232784" width="31.5" height="31.5"/>
		</g>
	</g>
</g>
</svg>
