<?xml version="1.0" encoding="utf-8"?>
<!-- Generator: Adobe Illustrator 16.0.0, SVG Export Plug-In . SVG Version: 6.00 Build 0)  -->
<!DOCTYPE svg PUBLIC "-//W3C//DTD SVG 1.1//EN" "http://www.w3.org/Graphics/SVG/1.1/DTD/svg11.dtd">
<svg version="1.1" id="Layer_1" xmlns="http://www.w3.org/2000/svg" xmlns:xlink="http://www.w3.org/1999/xlink" x="0px" y="0px"
	 width="500px" height="500px" viewBox="0 0 500 500" enable-background="new 0 0 500 500" xml:space="preserve">
<g>
	<path fill="#14227A" d="M414.594,139.913h-58.135V36.566h-83.966v103.347h-58.14l100.758,99.473L414.594,139.913z M298.336,164.451
		V61.123h33.578v103.328h21.967l-38.762,38.752l-38.744-38.752H298.336z"/>
	<path fill="#FFFFFF" d="M84.751,414.079c0.25-0.819,1.674-5.141,3.779-11.826l147.308,49.087
		c17.258,6.519,29.179,10.315,42.59,10.315c20.83,0,45.247-9.136,98.957-31.093l113.066-51.396c2.519-1.148,4.493-3.287,5.416-5.928
		c0.932-2.63,0.767-5.556-0.482-8.038c-14.292-28.55-45.921-43.065-76.858-35.354l-66.621,16.655
		c-2.968-25.685-18.146-40.831-48.585-48.438l-178.282-39.616c0.544-3.915,0.983-7.659,1.303-11.134
		c0.259-3.122-0.888-6.202-3.166-8.357c-17.629-16.698-88.071-22.08-109.246-23.357c-2.932-0.163-5.624,0.845-7.667,2.769
		c-2.062,1.933-3.234,4.65-3.234,7.487v185.025c0,5.677,4.614,10.272,10.281,10.272h61.687
		C79.43,421.169,83.372,418.322,84.751,414.079z M298.587,318.1c22.771,5.683,31.946,14.662,33.205,33.43l-19.741,4.916
		c-7.324,1.854-15.121,2.052-22.538,0.553l-89.201-17.839c-5.537-1.127-10.962,2.512-12.076,8.074
		c-1.113,5.581,2.502,10.981,8.073,12.093l89.193,17.839c4.615,0.929,9.357,1.377,14.06,1.377c5.899,0,11.815-0.715,17.49-2.146
		l27.575-6.891h0.12l78.773-19.7c18.019-4.443,36.233,1.813,47.585,15.56l-101.906,46.317
		c-86.475,35.449-89.45,34.354-126.479,20.312l-148.136-49.38c8.443-27.986,20.226-69.466,26.971-103.862L298.587,318.1z
		 M67.493,400.616H23.574V236.894c33.044,2.605,68.708,8.28,81.672,14.577C99.786,296.494,75.126,376.456,67.493,400.616z"/>
</g>
</svg>
