<?xml version="1.0" encoding="utf-8"?>
<!-- Generator: Adobe Illustrator 16.0.0, SVG Export Plug-In . SVG Version: 6.00 Build 0)  -->
<!DOCTYPE svg PUBLIC "-//W3C//DTD SVG 1.1//EN" "http://www.w3.org/Graphics/SVG/1.1/DTD/svg11.dtd">
<svg version="1.1" id="Uploaded_to_svgrepo.com" xmlns="http://www.w3.org/2000/svg" xmlns:xlink="http://www.w3.org/1999/xlink"
	 x="0px" y="0px" width="800px" height="800px" viewBox="0 0 800 800" enable-background="new 0 0 800 800" xml:space="preserve">
<path fill="#F8B133" d="M625,225V75H175v150h-75v300h75v225h450V525h75V225H625z M225,125h350v100H225V125z M575,700H225V475h350
     	V700z M650,475h-25v-50H175v50h-25V275h500V475z M200,300h50v50h-50V300z M275,300h50v50h-50V300z M525,575H275v-50h250V575z
     	 M525,650H275v-50h250V650z" />
</svg>
