<?xml version="1.0" encoding="utf-8"?>
<!-- Generator: Adobe Illustrator 16.0.0, SVG Export Plug-In . SVG Version: 6.00 Build 0)  -->
<!DOCTYPE svg PUBLIC "-//W3C//DTD SVG 1.1//EN" "http://www.w3.org/Graphics/SVG/1.1/DTD/svg11.dtd">
<svg version="1.1" id="Layer_1" xmlns="http://www.w3.org/2000/svg" xmlns:xlink="http://www.w3.org/1999/xlink" x="0px" y="0px"
	 width="500px" height="500px" viewBox="0 0 500 500" enable-background="new 0 0 500 500" xml:space="preserve">
<path fill="#FFFFFF" d="M314.467,240.157l-99.369-98.102h57.342V40.127h82.807v101.92h57.331L314.467,240.157 M276.249,166.248
	l38.21,38.218l38.228-38.218H331.02V64.344h-33.114v101.903H276.249z"/>
<path fill="#14227A" d="M492.255,364.246c-14.096-28.156-45.287-42.471-75.8-34.867l-65.7,16.425
	c-2.927-25.331-17.896-40.269-47.917-47.771l-175.82-39.068c0.535-3.862,0.969-7.552,1.283-10.981
	c0.255-3.079-0.876-6.115-3.122-8.243c-17.386-16.467-86.856-21.775-107.739-23.034c-2.892-0.162-5.546,0.833-7.562,2.73
	c-2.034,1.906-3.189,4.585-3.189,7.383v182.474c0,5.599,4.55,10.133,10.139,10.133h60.836c4.364,0,8.259-2.817,9.62-6.991
	c0.248-0.81,1.651-5.071,3.726-11.663l145.277,48.406c17.021,6.433,28.775,10.174,42.003,10.174
	c20.543,0,44.624-9.007,97.591-30.664L487.389,378c2.484-1.131,4.434-3.241,5.343-5.843
	C493.641,369.579,493.479,366.696,492.255,364.246 M70.247,399.162H26.933V237.691c32.587,2.569,67.761,8.166,80.545,14.375
	C102.102,296.469,77.774,375.339,70.247,399.162 M367.801,410.06c-85.282,34.961-88.217,33.881-124.734,20.032L96.973,381.393
	c8.327-27.601,19.947-68.509,26.598-102.43l174.598,38.806c22.456,5.605,31.507,14.46,32.749,32.971l-19.472,4.85
	c-7.221,1.825-14.91,2.023-22.225,0.542l-87.972-17.59c-5.461-1.115-10.811,2.474-11.909,7.96
	c-1.097,5.505,2.467,10.829,7.962,11.926l87.963,17.593c4.55,0.919,9.229,1.36,13.864,1.36c5.819,0,11.655-0.707,17.251-2.118
	l27.194-6.798h0.12l77.687-19.427c17.769-4.383,35.733,1.786,46.928,15.344L367.801,410.06z"/>
</svg>
