<?xml version="1.0" encoding="utf-8"?>
<!-- Generator: Adobe Illustrator 25.2.0, SVG Export Plug-In . SVG Version: 6.00 Build 0)  -->
<svg version="1.1" id="Capa_1" xmlns="http://www.w3.org/2000/svg" xmlns:xlink="http://www.w3.org/1999/xlink" x="0px" y="0px"
	 viewBox="0 0 1200 1200" style="enable-background:new 0 0 1200 1200;" xml:space="preserve">
<style type="text/css">
	.st0{fill:#14227A;}
	.st1{fill:#F8B133;}
</style>
<g>
	<path class="st0" d="M704.81,384.91h-36.85V319.4h-53.22v65.51h-36.85l63.87,63.05L704.81,384.91z M631.12,400.46v-65.5h21.28v65.5
		h13.92l-24.57,24.56l-24.56-24.56H631.12z"/>
	<path class="st1" d="M495.74,558.69c0.16-0.52,1.06-3.26,2.39-7.49l93.37,31.12c10.94,4.14,18.5,6.54,27,6.54
		c13.2,0,28.68-5.79,62.72-19.71l71.67-32.58c1.6-0.73,2.85-2.08,3.43-3.75c0.59-1.67,0.49-3.52-0.3-5.1
		c-9.06-18.1-29.11-27.3-48.72-22.41l-42.23,10.56c-1.88-16.28-11.51-25.88-30.79-30.7l-113.01-25.11c0.34-2.48,0.62-4.85,0.82-7.06
		c0.17-1.98-0.56-3.93-2.01-5.3c-11.17-10.58-55.82-14-69.25-14.8c-1.86-0.11-3.57,0.53-4.86,1.76c-1.31,1.22-2.05,2.95-2.05,4.74
		v117.28c0,3.6,2.93,6.51,6.52,6.51h39.1C492.36,563.19,494.87,561.38,495.74,558.69z M631.28,497.85
		c14.44,3.6,20.25,9.29,21.05,21.19l-12.51,3.11c-4.64,1.17-9.58,1.3-14.28,0.35l-56.54-11.31c-3.51-0.72-6.95,1.59-7.65,5.12
		c-0.7,3.54,1.59,6.96,5.12,7.66l56.54,11.31c2.93,0.59,5.93,0.87,8.91,0.87c3.74,0,7.49-0.46,11.09-1.36l17.48-4.37h0.08
		l49.93-12.48c11.42-2.82,22.97,1.15,30.16,9.86l-64.6,29.36c-54.81,22.47-56.7,21.78-80.17,12.88l-93.9-31.3
		c5.35-17.74,12.82-44.03,17.09-65.83L631.28,497.85z M484.8,550.16h-27.84V446.38c20.94,1.65,43.55,5.25,51.77,9.24
		C505.27,484.15,489.64,534.84,484.8,550.16z"/>
	<polygon class="st0" points="261.39,619.99 194.69,773.47 128.32,620.73 128,619.99 119.09,619.99 190.57,783.52 190.89,784.25 
		198.27,784.25 270.07,619.99 	"/>
	<path class="st0" d="M311.41,668.54c-27.49,0-55.32,20.27-55.32,59.01c0,43.52,31.8,59.03,61.56,59.03c14.36,0,27.9-3.1,37.14-8.5
		l0.61-0.35v-8.4l-1.85,1.08c-9.08,5.32-22.57,8.62-35.21,8.62c-25.24,0-52.65-12.36-54.2-47.01h97.78l0.16-1.03
		c2.68-16.84-1.8-34.51-11.68-46.09C341.28,674.19,327.8,668.54,311.41,668.54z M264.14,724.48c1.28-33.25,25.45-48.4,47.51-48.4
		c13.6,0,24.4,4.3,32.1,12.78c8.03,8.84,12.18,22.13,11.16,35.62H264.14z"/>
	<path class="st0" d="M432.29,668.54c-24.68,0-39.87,16.1-46.16,24.58v-22.27h-7.54v113.41h8.01v-79.28
		c3.84-6.97,18.11-28.9,45.24-28.9c22.28,0,36.68,15.4,36.68,39.22v68.96h8v-69.42C476.51,687.14,458.74,668.54,432.29,668.54z"/>
	<path class="st0" d="M590.92,777.72v-8.4l-1.85,1.08c-9.07,5.32-22.56,8.62-35.21,8.62c-25.24,0-52.65-12.36-54.2-47.01h97.78
		l0.16-1.03c2.68-16.84-1.79-34.5-11.68-46.09c-9.13-10.7-22.61-16.35-39-16.35c-27.49,0-55.31,20.27-55.31,59.01
		c0,43.52,31.8,59.03,61.56,59.03c14.37,0,27.91-3.1,37.14-8.5L590.92,777.72z M499.66,724.48c1.28-33.25,25.45-48.4,47.5-48.4
		c13.6,0,24.4,4.3,32.1,12.78c8.03,8.84,12.18,22.12,11.16,35.62H499.66z"/>
	<polygon class="st0" points="601.64,784.25 692.15,784.25 692.15,776.71 612.53,776.71 689.61,677.12 689.61,670.85 604.88,670.85 
		604.88,678.39 678.72,678.39 601.64,777.98 	"/>
	<path class="st0" d="M793.25,750.13c-3.84,6.97-18.09,28.89-45.23,28.89c-22.28,0-36.68-15.4-36.68-39.22v-68.95h-8.01v69.41
		c0,27.7,17.77,46.31,44.22,46.31c24.68,0,39.88-16.11,46.16-24.59v22.27h7.54V670.85h-8V750.13z"/>
	<path class="st0" d="M873.28,668.54c-27.49,0-55.32,20.27-55.32,59.01c0,43.52,31.8,59.03,61.56,59.03c14.37,0,27.91-3.1,37.14-8.5
		l0.61-0.35v-8.4l-1.85,1.08c-9.08,5.32-22.57,8.62-35.21,8.62c-25.25,0-52.65-12.36-54.21-47.01h97.79l0.16-1.04
		c2.68-16.85-1.8-34.51-11.69-46.1C903.14,674.19,889.66,668.54,873.28,668.54z M826,724.48c1.28-33.25,25.46-48.4,47.51-48.4
		c13.6,0,24.4,4.3,32.1,12.78c8.03,8.84,12.18,22.13,11.16,35.62H826z"/>
	<rect x="941.15" y="613.06" class="st0" width="8.01" height="171.2"/>
	<path class="st0" d="M1079.21,775.42c-2.49,1.03-5.06,1.51-8.09,1.51c-7.16,0-10.79-3.4-10.79-10.09v-52.7
		c0-28.55-17.39-45.6-46.52-45.6c-17.6,0-31.43,3.55-39.93,6.54l-0.82,0.29v8.17l1.65-0.61c8.48-3.12,22.11-6.85,38.87-6.85
		c24.63,0,38.76,13.71,38.76,37.61V724c-13.15-4.29-26.26-6.46-39-6.46c-23.61,0-48.84,9.49-48.84,36.12
		c0,22.73,19.54,32.91,38.91,32.91c19.89,0,38.03-8.86,48.93-23.81v4.31c0,12.84,9.11,17.41,17.64,17.41c3.39,0,6.8-0.65,10.15-1.93
		l0.79-0.3v-7.53L1079.21,775.42z M1004.33,779.26c-15.84,0-31.83-7.98-31.83-25.82c0-26.31,31.62-28.36,41.31-28.36
		c12.76,0,26.07,2.27,38.53,6.58v19.4C1043.2,768.45,1024.82,779.26,1004.33,779.26z"/>
	<path class="st1" d="M429.43,858.75c0-9.36,7.21-13.12,14.49-13.12c4.2,0,8.39,1.3,11.21,3.51v-10.78c-4-1.78-8.65-2.7-13.3-2.7
		c-12.39,0-24.85,6.83-24.85,23.09c0,15.38,12.52,21.85,25.11,21.85c4.85,0,9.38-0.92,13.38-2.7v-11.09
		c-2.63,2.4-6.96,3.75-11.67,3.75C436.64,870.56,429.43,867.11,429.43,858.75z"/>
	<path class="st1" d="M509.34,836.59l-18.03,43.09h12.45l2.63-6.78h19.01l2.62,6.78h12.45l-18.03-43.09H509.34z M509.99,863.66
		l4.72-12.43c0.4-1.04,0.79-2.09,1.18-4.37c0.39,2.27,0.79,3.33,1.18,4.37l4.72,12.43H509.99z"/>
	<path class="st1" d="M616.45,851.11c0-11.39-9.51-14.53-18.82-14.53h-19.34v43.09h12.13v-14.04h5.24l10.95,14.04h13.7l-12.66-15.65
		C612.71,862.13,616.45,858.25,616.45,851.11z M598.16,856.4h-7.73v-9.97h7.73c3.48,0,5.84,1.66,5.84,4.99
		C603.99,854.74,601.64,856.4,598.16,856.4z"/>
	<path class="st1" d="M684.49,870.5c-0.79,0.18-1.84,0.31-3.15,0.31c-5.24,0-13.57-2.04-13.57-12.69c0-8.87,7.01-12.43,14.42-12.43
		c4.59,0,9.24,1.23,12.66,3.45v-10.78c-4.33-1.72-9.31-2.7-14.23-2.7c-12.78,0-25.31,6.41-25.31,22.47
		c0,15.64,12.39,22.47,25.43,22.47c5.18,0,10.49-1.05,15.21-2.89v-21.74h-11.47V870.5z"/>
	<path class="st1" d="M759.09,835.66c-16.39,0-24.59,10.47-24.59,22.47c0,12.01,8.19,22.47,24.59,22.47
		c16.39,0,24.58-10.47,24.58-22.47C783.67,846.13,775.47,835.66,759.09,835.66z M759.09,870.13c-7.94,0-12.13-5.12-12.13-12.01
		c0-6.9,4.2-12,12.13-12c7.93,0,12.13,5.1,12.13,12C771.21,865.02,767.02,870.13,759.09,870.13z"/>
</g>
</svg>
