<?xml version="1.0" encoding="utf-8"?>
<!-- Generator: Adobe Illustrator 16.0.0, SVG Export Plug-In . SVG Version: 6.00 Build 0)  -->
<!DOCTYPE svg PUBLIC "-//W3C//DTD SVG 1.1//EN" "http://www.w3.org/Graphics/SVG/1.1/DTD/svg11.dtd">
<svg version="1.1" id="Layer_1" xmlns="http://www.w3.org/2000/svg" xmlns:xlink="http://www.w3.org/1999/xlink" x="0px" y="0px"
	 width="500px" height="300px" viewBox="0 0 500 300" enable-background="new 0 0 500 300" xml:space="preserve">
<g>
	<path fill="#FFFFFF" d="M303.582,40.779H284.73V7.267h-27.226v33.512h-18.851l32.674,32.254L303.582,40.779z M265.885,48.734
		V15.227h10.887v33.508h7.12l-12.568,12.564l-12.565-12.564H265.885z"/>
	<path fill="#F8B133" d="M196.628,129.68c0.083-0.266,0.543-1.668,1.223-3.832l47.765,15.92c5.597,2.118,9.463,3.346,13.813,3.346
		c6.752,0,14.67-2.962,32.085-10.083l36.664-16.667c0.818-0.374,1.457-1.064,1.754-1.918c0.302-0.854,0.252-1.801-0.154-2.609
		c-4.633-9.26-14.891-13.966-24.921-11.464l-21.605,5.402c-0.961-8.328-5.888-13.239-15.751-15.705l-57.812-12.846
		c0.173-1.269,0.317-2.481,0.419-3.611c0.087-1.013-0.287-2.011-1.028-2.711c-5.714-5.412-28.556-7.162-35.426-7.571
		c-0.951-0.056-1.826,0.271-2.486,0.9c-0.67,0.625-1.048,1.509-1.048,2.425v59.998c0,1.841,1.499,3.33,3.335,3.33h20.003
		C194.899,131.982,196.184,131.056,196.628,129.68z M265.966,98.556c7.388,1.842,10.359,4.753,10.771,10.84l-6.401,1.59
		c-2.374,0.599-4.9,0.665-7.305,0.18l-28.924-5.786c-1.796-0.368-3.555,0.813-3.913,2.619c-0.359,1.812,0.813,3.561,2.619,3.919
		l28.925,5.786c1.498,0.302,3.033,0.446,4.558,0.446c1.913,0,3.832-0.235,5.673-0.696l8.942-2.235h0.041l25.542-6.384
		c5.843-1.442,11.751,0.588,15.43,5.044l-33.048,15.02c-28.039,11.495-29.006,11.142-41.012,6.589l-48.036-16.012
		c2.736-9.075,6.558-22.524,8.742-33.676L265.966,98.556z M191.032,125.316H176.79v-53.09c10.712,0.844,22.279,2.686,26.483,4.727
		C201.504,91.547,193.508,117.479,191.032,125.316z"/>
	<polygon fill="#FFFFFF" points="76.743,161.039 42.621,239.555 8.668,161.418 8.505,161.039 3.946,161.039 40.514,244.696 
		40.677,245.07 44.453,245.07 81.183,161.039 	"/>
	<path fill="#FFFFFF" d="M102.332,185.876c-14.063,0-28.3,10.369-28.3,30.188c0,22.263,16.268,30.197,31.492,30.197
		c7.347,0,14.273-1.586,19-4.349l0.312-0.179v-4.297l-0.946,0.551c-4.645,2.722-11.546,4.41-18.012,4.41
		c-12.912,0-26.934-6.324-27.728-24.049h50.021l0.082-0.526c1.371-8.615-0.92-17.654-5.975-23.578
		C117.612,188.766,110.716,185.876,102.332,185.876z M78.149,214.493c0.655-17.01,13.02-24.76,24.305-24.76
		c6.958,0,12.483,2.2,16.422,6.537c4.108,4.523,6.231,11.321,5.709,18.223H78.149z"/>
	<path fill="#FFFFFF" d="M164.169,185.876c-12.625,0-20.396,8.235-23.613,12.573v-11.392h-3.858v58.017h4.098v-40.557
		c1.964-3.565,9.265-14.784,23.144-14.784c11.397,0,18.764,7.878,18.764,20.063v35.278h4.092v-35.514
		C186.791,195.392,177.7,185.876,164.169,185.876z"/>
	<path fill="#FFFFFF" d="M245.319,241.728v-4.296l-0.946,0.553c-4.64,2.722-11.541,4.409-18.012,4.409
		c-12.912,0-26.934-6.323-27.728-24.05h50.021l0.082-0.525c1.372-8.615-0.916-17.649-5.975-23.578
		c-4.67-5.475-11.566-8.364-19.951-8.364c-14.063,0-28.295,10.369-28.295,30.188c0,22.263,16.268,30.197,31.492,30.197
		c7.352,0,14.278-1.586,19-4.349L245.319,241.728z M198.634,214.493c0.655-17.01,13.02-24.76,24.3-24.76
		c6.957,0,12.482,2.2,16.421,6.537c4.107,4.523,6.23,11.316,5.709,18.223H198.634z"/>
	<polygon fill="#FFFFFF" points="250.804,245.07 297.106,245.07 297.106,241.212 256.374,241.212 295.807,190.264 295.807,187.058 
		252.461,187.058 252.461,190.914 290.235,190.914 250.804,241.862 	"/>
	<path fill="#FFFFFF" d="M348.824,227.615c-1.964,3.565-9.253,14.778-23.138,14.778c-11.397,0-18.764-7.878-18.764-20.063v-35.272
		h-4.098v35.507c0,14.171,9.091,23.69,22.622,23.69c12.625,0,20.4-8.239,23.613-12.577v11.393h3.857v-58.013h-4.094V227.615z"/>
	<path fill="#FFFFFF" d="M389.766,185.876c-14.063,0-28.3,10.369-28.3,30.188c0,22.263,16.268,30.197,31.492,30.197
		c7.351,0,14.277-1.586,18.999-4.349l0.313-0.179v-4.297l-0.947,0.551c-4.646,2.722-11.547,4.41-18.013,4.41
		c-12.917,0-26.935-6.324-27.731-24.049h50.026l0.082-0.531c1.37-8.619-0.922-17.655-5.981-23.583
		C405.042,188.766,398.145,185.876,389.766,185.876z M365.579,214.493c0.654-17.01,13.025-24.76,24.305-24.76
		c6.957,0,12.481,2.2,16.422,6.537c4.107,4.523,6.229,11.321,5.708,18.223H365.579z"/>
	<rect x="424.485" y="157.494" fill="#FFFFFF" width="4.098" height="87.58"/>
	<path fill="#FFFFFF" d="M495.113,240.553c-1.274,0.527-2.589,0.771-4.139,0.771c-3.663,0-5.521-1.738-5.521-5.162v-26.959
		c0-14.605-8.896-23.327-23.797-23.327c-9.005,0-16.079,1.815-20.428,3.346l-0.42,0.148v4.179l0.844-0.312
		c4.339-1.597,11.312-3.504,19.886-3.504c12.6,0,19.827,7.012,19.827,19.239v5.274c-6.726-2.194-13.434-3.305-19.95-3.305
		c-12.077,0-24.985,4.855-24.985,18.479c0,11.628,9.997,16.834,19.906,16.834c10.174,0,19.454-4.531,25.029-12.18v2.205
		c0,6.569,4.661,8.907,9.025,8.907c1.733,0,3.479-0.334,5.191-0.987l0.405-0.154v-3.853L495.113,240.553z M456.807,242.516
		c-8.103,0-16.283-4.08-16.283-13.208c0-13.459,16.177-14.507,21.134-14.507c6.526,0,13.336,1.16,19.709,3.365v9.924
		C476.691,236.986,467.287,242.516,456.807,242.516z"/>
	<path fill="#F8B133" d="M162.707,283.181c0-4.788,3.688-6.712,7.413-6.712c2.148,0,4.292,0.665,5.735,1.796v-5.515
		c-2.046-0.91-4.425-1.382-6.804-1.382c-6.338,0-12.712,3.494-12.712,11.813c0,7.868,6.405,11.177,12.845,11.177
		c2.482,0,4.798-0.47,6.846-1.381v-5.673c-1.346,1.229-3.562,1.919-5.971,1.919C166.395,289.223,162.707,287.457,162.707,283.181z"
		/>
	<path fill="#F8B133" d="M203.586,271.844l-9.224,22.044h6.369l1.345-3.468h9.725l1.34,3.468h6.369l-9.224-22.044H203.586z
		 M203.918,285.692l2.415-6.358c0.205-0.531,0.404-1.069,0.604-2.235c0.199,1.162,0.404,1.704,0.604,2.235l2.415,6.358H203.918z"/>
	<path fill="#F8B133" d="M258.379,279.271c0-5.826-4.864-7.432-9.627-7.432h-9.894v22.043h6.206v-7.182h2.68l5.602,7.182h7.01
		l-6.478-8.007C256.467,284.91,258.379,282.925,258.379,279.271z M249.023,281.979h-3.954v-5.101h3.954
		c1.781,0,2.986,0.849,2.986,2.552C252.005,281.13,250.804,281.979,249.023,281.979z"/>
	<path fill="#F8B133" d="M293.188,289.193c-0.404,0.091-0.942,0.157-1.612,0.157c-2.68,0-6.942-1.044-6.942-6.492
		c0-4.538,3.587-6.358,7.378-6.358c2.348,0,4.727,0.629,6.478,1.765v-5.515c-2.217-0.88-4.765-1.382-7.281-1.382
		c-6.537,0-12.947,3.279-12.947,11.496c0,7.999,6.339,11.493,13.009,11.493c2.649,0,5.366-0.536,7.779-1.478v-11.121h-5.866v7.435
		H293.188z"/>
	<path fill="#F8B133" d="M331.35,271.368c-8.385,0-12.579,5.357-12.579,11.496c0,6.144,4.189,11.493,12.579,11.493
		c8.384,0,12.575-5.354,12.575-11.493C343.925,276.726,339.729,271.368,331.35,271.368z M331.35,289.004
		c-4.062,0-6.204-2.62-6.204-6.146c0-3.529,2.148-6.139,6.204-6.139c4.058,0,6.206,2.609,6.206,6.139
		C337.55,286.388,335.407,289.004,331.35,289.004z"/>
</g>
</svg>
