<?xml version="1.0" encoding="utf-8"?>
<!-- Generator: Adobe Illustrator 25.2.0, SVG Export Plug-In . SVG Version: 6.00 Build 0)  -->
<svg version="1.1" id="Capa_1" xmlns="http://www.w3.org/2000/svg" xmlns:xlink="http://www.w3.org/1999/xlink" x="0px" y="0px"
	 viewBox="0 0 1200 1200" style="enable-background:new 0 0 1200 1200;" xml:space="preserve">
<style type="text/css">
	.st0{fill:#14227A;}
	.st1{fill:#FFFFFF;}
	.st2{fill:#F8B133;}
</style>
<rect class="st0" width="1200" height="1200"/>
<g>
	<path class="st1" d="M634.04,476.08l-52.06-51.39h30.04v-53.39h43.38v53.39h30.03L634.04,476.08 M614.02,437.36l20.02,20.02
		l20.03-20.02h-11.35v-53.38h-17.35v53.38H614.02z"/>
	<path class="st2" d="M727.17,541.08c-7.38-14.75-23.72-22.25-39.71-18.27l-34.42,8.6c-1.53-13.27-9.38-21.09-25.1-25.02
		l-92.11-20.46c0.28-2.02,0.51-3.96,0.67-5.75c0.14-1.61-0.46-3.21-1.63-4.32c-9.11-8.63-45.5-11.41-56.44-12.07
		c-1.51-0.09-2.91,0.43-3.96,1.43c-1.06,1-1.67,2.4-1.67,3.87v95.59c0,2.93,2.38,5.31,5.31,5.31h31.87c2.29,0,4.33-1.47,5.04-3.66
		c0.13-0.42,0.86-2.65,1.95-6.11l76.11,25.36c8.92,3.37,15.08,5.33,22.01,5.33c10.76,0,23.38-4.72,51.12-16.06l58.42-26.55
		c1.3-0.59,2.32-1.7,2.8-3.06C727.9,543.87,727.82,542.37,727.17,541.08 M506.1,559.37h-22.69v-84.59
		c17.07,1.35,35.5,4.28,42.2,7.53C522.79,505.58,510.04,546.89,506.1,559.37 M661.98,565.08c-44.68,18.32-46.22,17.75-65.35,10.49
		l-76.53-25.51c4.36-14.46,10.45-35.89,13.93-53.66l91.46,20.33c11.77,2.94,16.51,7.57,17.15,17.27l-10.2,2.54
		c-3.78,0.96-7.81,1.06-11.64,0.28l-46.08-9.22c-2.86-0.58-5.67,1.3-6.24,4.17c-0.57,2.88,1.29,5.67,4.17,6.25l46.08,9.22
		c2.38,0.48,4.83,0.71,7.26,0.71c3.05,0,6.1-0.37,9.04-1.11l14.24-3.56h0.06l40.7-10.18c9.31-2.29,18.72,0.94,24.59,8.04
		L661.98,565.08z"/>
	<g>
		<polygon class="st1" points="324.01,616.3 269.64,741.39 215.28,616.3 208.02,616.3 266.54,750.18 272.56,750.18 331.08,616.3 		
			"/>
		<path class="st1" d="M364.78,655.86c-22.41,0-45.09,16.52-45.09,48.09c0,35.47,25.92,48.11,50.18,48.11
			c11.71,0,22.74-2.52,30.27-6.93l0.5-0.29v-6.85l-1.51,0.88c-7.4,4.33-18.39,7.03-28.7,7.03c-20.62,0-42.91-10.09-44.18-38.31h79.7
			l0.13-0.84c2.19-13.73-1.46-28.12-9.52-37.57C389.13,660.47,378.13,655.86,364.78,655.86z M326.25,701.46
			c1.04-27.1,20.69-39.45,38.72-39.45c11.09,0,19.89,3.5,26.16,10.42c6.56,7.23,9.93,18.02,9.09,29.04H326.25z"/>
		<path class="st1" d="M463.31,655.86c-20.09,0-32.48,13.1-37.62,20.03v-18.15h-6.15v92.43h6.53v-64.62
			c3.21-5.82,14.81-23.56,36.87-23.56c18.16,0,29.9,12.55,29.9,31.97v56.2h6.52V693.6C499.35,671.03,484.86,655.86,463.31,655.86z"
			/>
		<path class="st1" d="M556.74,655.86c-22.4,0-45.08,16.52-45.08,48.09c0,35.47,25.92,48.11,50.17,48.11
			c11.71,0,22.75-2.52,30.27-6.93l0.5-0.29v-6.84l-1.51,0.88c-7.39,4.33-18.39,7.02-28.7,7.02c-20.62,0-42.91-10.09-44.18-38.31
			h79.7l0.13-0.84c2.19-13.72-1.46-28.12-9.52-37.57C581.09,660.47,570.1,655.86,556.74,655.86z M518.21,701.46
			c1.04-27.09,20.69-39.45,38.72-39.45c11.09,0,19.89,3.5,26.16,10.42c6.56,7.23,9.93,18.02,9.09,29.04H518.21z"/>
		<polygon class="st1" points="672.83,663.13 673.04,662.86 673.04,657.75 603.97,657.75 603.97,663.89 664.16,663.89 601.55,744.8 
			601.34,745.07 601.34,750.18 675.11,750.18 675.11,744.03 610.21,744.03 		"/>
		<path class="st1" d="M757.51,722.36c-3.2,5.82-14.8,23.55-36.87,23.55c-18.16,0-29.9-12.55-29.9-31.97v-56.2h-6.53v56.57
			c0,22.58,14.48,37.75,36.04,37.75c20.1,0,32.48-13.1,37.62-20.04v18.15h6.14v-92.43h-6.52V722.36z"/>
		<path class="st1" d="M822.74,655.86c-22.41,0-45.09,16.52-45.09,48.09c0,35.47,25.92,48.11,50.18,48.11
			c11.71,0,22.75-2.52,30.28-6.93l0.5-0.29v-6.85l-1.51,0.88c-7.4,4.33-18.39,7.03-28.7,7.03c-20.62,0-42.91-10.09-44.18-38.31h79.7
			l0.13-0.84c2.18-13.73-1.47-28.13-9.53-37.57C847.09,660.47,836.1,655.86,822.74,655.86z M784.21,701.46
			c1.04-27.1,20.69-39.45,38.73-39.45c11.08,0,19.89,3.5,26.16,10.41c6.56,7.23,9.93,18.02,9.09,29.04H784.21z"/>
		<rect x="878.06" y="610.64" class="st1" width="6.53" height="139.54"/>
		<path class="st1" d="M990.6,742.99c-2.03,0.84-4.13,1.23-6.59,1.23c-5.84,0-8.8-2.77-8.8-8.23v-42.96
			c0-23.27-14.18-37.17-37.92-37.17c-14.35,0-25.62,2.9-32.55,5.33l-0.67,0.23v6.66l1.35-0.5c6.92-2.55,18.02-5.58,31.68-5.58
			c20.08,0,31.59,11.17,31.59,30.65v8.41c-10.72-3.5-21.4-5.27-31.79-5.27c-19.25,0-39.81,7.73-39.81,29.44
			c0,18.53,15.93,26.82,31.71,26.82c16.32,0,30.99-7.19,39.88-19.4v3.51c0,10.46,7.42,14.19,14.37,14.19c2.76,0,5.54-0.53,8.27-1.58
			l0.64-0.25v-6.13L990.6,742.99z M968.69,707.31v15.81c-7.45,14.19-22.42,22.99-39.13,22.99c-12.91,0-25.94-6.51-25.94-21.04
			c0-21.45,25.77-23.11,33.67-23.11C947.69,701.95,958.53,703.8,968.69,707.31z"/>
	</g>
	<path class="st2" d="M471.07,792.08c3.79,0,7.59,0.76,10.84,2.2v8.79c-2.29-1.81-5.71-2.86-9.13-2.86
		c-5.93,0-11.81,3.06-11.81,10.69c0,6.82,5.88,9.63,11.71,9.63c3.84,0,7.37-1.11,9.51-3.06v9.04c-3.26,1.45-6.95,2.2-10.91,2.2
		c-10.26,0-20.46-5.27-20.46-17.81C450.82,797.65,460.97,792.08,471.07,792.08"/>
	<path class="st2" d="M511.41,827.96l14.69-35.12h10.69l14.69,35.12h-10.15l-2.14-5.52h-15.5l-2.14,5.52H511.41 M526.64,814.91h9.62
		l-3.85-10.13c-0.32-0.85-0.64-1.71-0.96-3.56c-0.32,1.85-0.64,2.71-0.96,3.56L526.64,814.91z"/>
	<path class="st2" d="M582.31,827.96v-35.12h15.76c7.59,0,15.34,2.55,15.34,11.84c0,5.82-3.05,8.98-7.16,10.53l10.31,12.75h-11.17
		l-8.92-11.44h-4.27v11.44H582.31 M592.2,808.99h6.3c2.84,0,4.76-1.35,4.76-4.06c0-2.71-1.92-4.06-4.76-4.06h-6.3V808.99z"/>
	<path class="st2" d="M665.72,792.08c4.01,0,8.07,0.81,11.6,2.2v8.79c-2.78-1.81-6.57-2.81-10.31-2.81
		c-6.04,0-11.75,2.91-11.75,10.13c0,8.68,6.79,10.34,11.06,10.34c1.07,0,1.92-0.11,2.56-0.25v-11.84h9.35v17.72
		c-3.85,1.5-8.18,2.36-12.4,2.36c-10.63,0-20.73-5.57-20.73-18.32C645.09,797.3,655.3,792.08,665.72,792.08"/>
	<path class="st2" d="M729.67,792.08c13.36,0,20.04,8.53,20.04,18.32c0,9.79-6.68,18.32-20.04,18.32
		c-13.36,0-20.04-8.53-20.04-18.32C709.63,800.61,716.31,792.08,729.67,792.08 M729.67,800.61c-6.47,0-9.89,4.16-9.89,9.78
		c0,5.62,3.42,9.79,9.89,9.79c6.46,0,9.88-4.17,9.88-9.79C739.55,804.77,736.13,800.61,729.67,800.61"/>
</g>
</svg>
