<?xml version="1.0" encoding="utf-8"?>
<!-- Generator: Adobe Illustrator 16.0.0, SVG Export Plug-In . SVG Version: 6.00 Build 0)  -->
<!DOCTYPE svg PUBLIC "-//W3C//DTD SVG 1.1//EN" "http://www.w3.org/Graphics/SVG/1.1/DTD/svg11.dtd">
<svg version="1.1" id="Capa_1" xmlns="http://www.w3.org/2000/svg" xmlns:xlink="http://www.w3.org/1999/xlink" x="0px" y="0px"
	 width="512px" height="512px" viewBox="0 0 512 512" enable-background="new 0 0 512 512" xml:space="preserve">
<g>
	<path fill="#222783" d="M455.266,56.734c-75.645-75.644-198.729-75.644-274.375,0c-72.074,72.074-75.476,187.214-10.207,263.354
		l-18.979,18.979l-37.834-37.834l-21.228,21.229l16.333,16.333L0,447.769L64.231,512l108.974-108.975l14.522,14.522l21.229-21.228
		l-36.024-36.024l18.979-18.979c36.184,31.017,81.175,46.526,126.166,46.526c49.682,0,99.365-18.911,137.187-56.733
		C530.911,255.464,530.911,132.379,455.266,56.734z M42.457,447.769l21.231-21.23l21.774,21.774L64.23,469.544L42.457,447.769z
		 M106.691,427.083l-21.774-21.774l45.287-45.287l21.774,21.774L106.691,427.083z M434.038,309.881
		c-63.941,63.939-167.978,63.939-231.919,0c-63.94-63.941-63.94-167.979,0-231.919c31.97-31.969,73.965-47.955,115.959-47.955
		s83.989,15.985,115.96,47.955C497.977,141.903,497.977,245.94,434.038,309.881z"/>
	<path fill="#222783" d="M415.176,96.823c-25.936-25.936-60.42-40.219-97.098-40.219s-71.162,14.284-97.098,40.219
		c-25.936,25.936-40.219,60.42-40.219,97.098c0,36.678,14.283,71.163,40.219,97.099s60.418,40.219,97.098,40.219
		c36.679,0,71.163-14.284,97.098-40.219c25.937-25.937,40.221-60.42,40.221-97.099C455.396,157.243,441.113,122.759,415.176,96.823z
		 M393.948,269.792c-41.835,41.836-109.905,41.835-151.74,0s-41.835-109.905,0-151.74c20.267-20.266,47.21-31.426,75.87-31.426
		s55.604,11.16,75.87,31.426C435.783,159.886,435.783,227.957,393.948,269.792z"/>
</g>
</svg>
