<?xml version="1.0" encoding="utf-8"?>
<!-- Generator: Adobe Illustrator 16.0.0, SVG Export Plug-In . SVG Version: 6.00 Build 0)  -->
<!DOCTYPE svg PUBLIC "-//W3C//DTD SVG 1.1//EN" "http://www.w3.org/Graphics/SVG/1.1/DTD/svg11.dtd">
<svg version="1.1" id="Layer_1" xmlns="http://www.w3.org/2000/svg" xmlns:xlink="http://www.w3.org/1999/xlink" x="0px" y="0px"
	 width="512px" height="512px" viewBox="0 0 512 512" enable-background="new 0 0 512 512" xml:space="preserve">
<path fill="#232784" d="M255.657,2.778L18,125.802v263.173L255.657,512l237.656-123.024V125.802L255.657,2.778z M255.657,233.379
	l-38.116-19.729l190.274-98.501l38.12,19.732L255.657,233.379z M135.955,171.417l190.278-98.501l49.126,25.432l-190.277,98.501
	L135.955,171.417z M118.417,195.939l51.745,26.788v65.184l-51.745-26.788V195.939z M293.772,56.116l-190.277,98.498l-38.116-19.732
	L255.657,36.38L293.772,56.116z M47.842,159.408l40.734,21.084v98.785l111.427,57.682v-98.782l40.731,21.084V470.67L47.842,370.816
	V159.408z M270.579,470.67V259.262l192.889-99.854V370.82L270.579,470.67z"/>
</svg>
