<?xml version="1.0" encoding="utf-8"?>
<!-- Generator: Adobe Illustrator 16.0.0, SVG Export Plug-In . SVG Version: 6.00 Build 0)  -->
<!DOCTYPE svg PUBLIC "-//W3C//DTD SVG 1.1//EN" "http://www.w3.org/Graphics/SVG/1.1/DTD/svg11.dtd">
<svg version="1.1" id="Layer_1" xmlns="http://www.w3.org/2000/svg" xmlns:xlink="http://www.w3.org/1999/xlink" x="0px" y="0px"
	 width="512px" height="512px" viewBox="0 0 512 512" enable-background="new 0 0 512 512" xml:space="preserve">
<path fill="#FFFFFF" d="M512,143.965v-39.988h-76.977V63.988h-39.988v39.988h-74.977v39.988h28.991v119.961H280.07V103.977h-79.978
	V24H80.129v159.953H0l4.504,23.723c7.887,41.531,22.852,82.574,44.477,121.98c18.195,33.147,40.32,63.664,65.902,90.983
	c-5.324,14.688-19.563,25.23-36.25,25.23c-21.223,0-38.488-17.043-38.488-37.988H0.156c0,42.996,35.203,77.978,78.477,77.978
	c23.762,0,45.078-10.566,59.48-27.199c14.402,16.633,35.719,27.199,59.48,27.199c23.219,0,44.102-10.078,58.484-26.052
	c14.379,15.974,35.266,26.052,58.479,26.052c23.767,0,45.082-10.566,59.484-27.199c14.402,16.633,35.719,27.199,59.48,27.199
	c43.272,0,78.477-34.98,78.477-77.978H472.01c0,20.945-17.266,37.988-38.487,37.988c-7.859,0-15.173-2.34-21.271-6.348
	c12.254-26.293,30.023-48.474,52.891-65.984c18.474-14.146,33.539-19.789,33.603-19.813L512,348.98v-85.056h-28.992V143.961H512
	V143.965z M200.094,263.926v-39.984h39.988v39.984H200.094z M240.082,143.965v39.988h-39.988v-39.988H240.082z M120.117,63.988
	h39.988v39.988h-39.988V63.988z M120.117,143.965h39.988v39.988h-39.988V143.965z M472.012,322.02
	c-20.535,10.445-60.418,35.875-88.43,85.867h-30.535c0,20.945-17.266,37.988-38.488,37.988c-21.222,0-38.488-17.043-38.488-37.988
	h-39.987c0,20.945-17.266,37.988-38.488,37.988c-21.222,0-38.488-17.043-38.488-37.988h-1.449l0.359-0.375
	c-52.164-50.479-90.992-116.301-108.824-183.57h110.914v79.977h311.906L472.012,322.02L472.012,322.02z M443.02,263.926H389.04
	V143.965h53.979V263.926z M336.055,338.906c11.043,0,19.992,8.949,19.992,19.992s-8.949,19.991-19.992,19.991
	s-19.996-8.948-19.996-19.991S325.012,338.906,336.055,338.906z M286.07,358.898c0,11.043-8.953,19.991-19.996,19.991
	s-19.992-8.948-19.992-19.991s8.949-19.992,19.992-19.992S286.07,347.855,286.07,358.898z M216.09,358.898
	c0,11.043-8.953,19.991-19.996,19.991c-11.039,0-19.992-8.948-19.992-19.991s8.953-19.992,19.992-19.992
	C207.137,338.906,216.09,347.855,216.09,358.898z"/>
</svg>
