<?xml version="1.0" encoding="utf-8"?>
<!-- Generator: Adobe Illustrator 16.0.0, SVG Export Plug-In . SVG Version: 6.00 Build 0)  -->
<!DOCTYPE svg PUBLIC "-//W3C//DTD SVG 1.1//EN" "http://www.w3.org/Graphics/SVG/1.1/DTD/svg11.dtd">
<svg version="1.1" id="Layer_1" xmlns="http://www.w3.org/2000/svg" xmlns:xlink="http://www.w3.org/1999/xlink" x="0px" y="0px"
	 width="512px" height="512px" viewBox="0 0 512 512" enable-background="new 0 0 512 512" xml:space="preserve">
<path fill="#222783" d="M512,143.965v-39.988h-76.977V63.988h-39.988v39.988h-74.977v39.988h28.992v119.961h-68.98V103.977h-79.977
	V24H80.129v159.953H0l4.504,23.723c7.887,41.531,22.852,82.574,44.477,121.98c18.195,33.148,40.32,63.664,65.902,90.984
	c-5.324,14.688-19.563,25.23-36.25,25.23c-21.223,0-38.488-17.043-38.488-37.988H0.156c0,42.996,35.203,77.977,78.477,77.977
	c23.762,0,45.078-10.566,59.48-27.199c14.402,16.633,35.719,27.199,59.48,27.199c23.219,0,44.102-10.078,58.484-26.051
	c14.379,15.973,35.266,26.051,58.48,26.051c23.766,0,45.082-10.566,59.484-27.199c14.402,16.633,35.719,27.199,59.48,27.199
	c43.273,0,78.477-34.98,78.477-77.977h-39.988c0,20.945-17.266,37.988-38.488,37.988c-7.859,0-15.172-2.34-21.27-6.348
	c12.254-26.293,30.023-48.473,52.891-65.984c18.473-14.145,33.539-19.789,33.602-19.813L512,348.98v-85.055h-28.992V143.961H512
	V143.965z M200.094,263.926v-39.984h39.988v39.984H200.094z M240.082,143.965v39.988h-39.988v-39.988H240.082z M120.117,63.988
	h39.988v39.988h-39.988V63.988z M120.117,143.965h39.988v39.988h-39.988V143.965z M472.012,322.02
	c-20.535,10.445-60.418,35.875-88.43,85.867h-30.535c0,20.945-17.266,37.988-38.488,37.988s-38.488-17.043-38.488-37.988h-39.988
	c0,20.945-17.266,37.988-38.488,37.988s-38.488-17.043-38.488-37.988h-1.449l0.359-0.375
	c-52.164-50.48-90.992-116.301-108.824-183.57h110.914v79.977h311.906V322.02z M443.02,263.926h-53.98V143.965h53.98V263.926z
	 M336.055,338.906c11.043,0,19.992,8.949,19.992,19.992s-8.949,19.992-19.992,19.992s-19.996-8.949-19.996-19.992
	S325.012,338.906,336.055,338.906z M286.07,358.898c0,11.043-8.953,19.992-19.996,19.992s-19.992-8.949-19.992-19.992
	s8.949-19.992,19.992-19.992S286.07,347.855,286.07,358.898z M216.09,358.898c0,11.043-8.953,19.992-19.996,19.992
	c-11.039,0-19.992-8.949-19.992-19.992s8.953-19.992,19.992-19.992C207.137,338.906,216.09,347.855,216.09,358.898z"/>
</svg>
