<?xml version="1.0" encoding="utf-8"?>
<!-- Generator: Adobe Illustrator 16.0.0, SVG Export Plug-In . SVG Version: 6.00 Build 0)  -->
<!DOCTYPE svg PUBLIC "-//W3C//DTD SVG 1.1//EN" "http://www.w3.org/Graphics/SVG/1.1/DTD/svg11.dtd">
<svg version="1.1" id="Layer_1" xmlns="http://www.w3.org/2000/svg" xmlns:xlink="http://www.w3.org/1999/xlink" x="0px" y="0px"
	 width="512px" height="512px" viewBox="0 0 512 512" enable-background="new 0 0 512 512" xml:space="preserve">
<path fill="#232784" d="M256.75,2.62L2.5,96.789v320.043L256.75,511L511,416.832V96.789L256.75,2.62z M256.75,176.238
	l-64.222-23.786l177.195-65.626l64.222,23.786L256.75,176.238z M312.53,65.644L135.336,131.27l-55.78-20.658L256.75,44.985
	L312.53,65.644z M42.227,139.149l75.48,27.956v98.083l39.723,14.712c0-0.016,0.004-0.031,0.004-0.047V181.82l79.453,29.426v250.029
	l-194.66-72.094V139.149z M276.613,461.275V211.247l194.66-72.098v250.033L276.613,461.275z"/>
</svg>
