<?xml version="1.0" encoding="utf-8"?>
<!-- Generator: Adobe Illustrator 16.0.0, SVG Export Plug-In . SVG Version: 6.00 Build 0)  -->
<!DOCTYPE svg PUBLIC "-//W3C//DTD SVG 1.1//EN" "http://www.w3.org/Graphics/SVG/1.1/DTD/svg11.dtd">
<svg version="1.1" id="Layer_1" xmlns="http://www.w3.org/2000/svg" xmlns:xlink="http://www.w3.org/1999/xlink" x="0px" y="0px"
	 width="512px" height="512px" viewBox="0 0 512 512" enable-background="new 0 0 512 512" xml:space="preserve">
<g>
	<path fill="#232784" d="M386.273,299.229V10.5H11.5v432.137h288.729V500H501V299.229H386.273z M386.273,327.91h28.682v28.682
		h-28.682V327.91z M357.592,39.182v86.045H40.182V39.182H357.592z M40.182,413.955V153.908h317.41v145.32H328.91V184.502
		c-50.396,0-198.71,0-258.135,0v200.771h229.453v28.682H40.182z M300.229,356.592h-28.682c0-40.711,0-79.72,0-143.408h28.682
		V356.592z M99.457,327.91h143.408v28.682H99.457V327.91z M214.184,270.547h28.682v28.682h-28.682V270.547z M185.502,299.229H156.82
		v-28.682h28.682V299.229z M214.184,241.865v-28.682h28.682v28.682H214.184z M185.502,241.865H156.82v-28.682h28.682V241.865z
		 M128.139,241.865H99.457v-28.682h28.682V241.865z M128.139,270.547v28.682H99.457v-28.682H128.139z M472.318,471.318H328.91
		V327.91h28.682v57.363h86.045V327.91h28.682V471.318z"/>
	<path fill="#232784" d="M300.229,67.863h28.682v28.682h-28.682V67.863z"/>
	<path fill="#232784" d="M242.865,67.863h28.682v28.682h-28.682V67.863z"/>
	<path fill="#232784" d="M185.502,67.863h28.682v28.682h-28.682V67.863z"/>
</g>
</svg>
