<?xml version="1.0" encoding="utf-8"?>
<!-- Generator: Adobe Illustrator 16.0.0, SVG Export Plug-In . SVG Version: 6.00 Build 0)  -->
<!DOCTYPE svg PUBLIC "-//W3C//DTD SVG 1.1//EN" "http://www.w3.org/Graphics/SVG/1.1/DTD/svg11.dtd">
<svg version="1.1" id="Layer_1" xmlns="http://www.w3.org/2000/svg" xmlns:xlink="http://www.w3.org/1999/xlink" x="0px" y="0px"
	 width="512px" height="512px" viewBox="0 0 512 512" enable-background="new 0 0 512 512" xml:space="preserve">
<g>
	<g>
		<g>
			<path fill="#232784" d="M365.738,39.922L358.889,0H146.168v39.922H40.375V511h431.156V39.922H365.738z M176.109,29.941h159.688
				V81.84H176.109V29.941z M385.699,111.781v237.535h-83.836v83.836H126.207V111.781H385.699z M378.499,379.258l-46.694,46.694
				v-46.694H378.499z M441.59,481.059H70.316V69.863h75.852V81.84H96.266v381.254h240.743l78.632-78.632V81.84h-49.902V69.863
				h75.852V481.059z"/>
		</g>
	</g>
	<g>
		<g>
			<polygon fill="#232784" points="228.612,178.257 207.442,157.087 189.583,174.944 171.724,157.087 150.554,178.257 
				168.411,196.116 150.554,213.976 171.724,235.146 189.583,217.288 207.442,235.146 228.612,213.976 210.755,196.116 			"/>
		</g>
	</g>
	<g>
		<g>
			<rect x="255.953" y="182.643" fill="#232784" width="108.787" height="29.941"/>
		</g>
	</g>
	<g>
		<g>
			<rect x="255.953" y="287.357" fill="#232784" width="108.787" height="29.941"/>
		</g>
	</g>
	<g>
		<g>
			<polygon fill="#232784" points="214.346,267.869 180.063,302.152 163.739,285.831 142.569,307 180.063,344.496 235.517,289.041 
							"/>
		</g>
	</g>
</g>
</svg>
