<?xml version="1.0" encoding="utf-8"?>
<!-- Generator: Adobe Illustrator 16.0.0, SVG Export Plug-In . SVG Version: 6.00 Build 0)  -->
<!DOCTYPE svg PUBLIC "-//W3C//DTD SVG 1.1//EN" "http://www.w3.org/Graphics/SVG/1.1/DTD/svg11.dtd">
<svg version="1.1" id="Layer_1" xmlns="http://www.w3.org/2000/svg" xmlns:xlink="http://www.w3.org/1999/xlink" x="0px" y="0px"
	 width="512px" height="512px" viewBox="0 0 512 512" enable-background="new 0 0 512 512" xml:space="preserve">
<g>
	<path fill="#232784" d="M476.56,246.666v-20.356C476.56,104.274,377.799,5.5,255.75,5.5c-122.035,0-220.808,98.759-220.808,220.808
		v20.357C17.502,255.42,5.5,273.464,5.5,294.27v70.167c0,29.356,23.883,53.24,53.24,53.24h64.525V241.029H64.382
		c0.375-9.373-1.692-30.019,5.153-58.882h60.902l3.856-8.827c21.103-48.293,68.777-79.497,121.458-79.497
		c52.68,0,100.354,31.204,121.457,79.497l3.857,8.827h60.901c3.362,14.181,5.151,28.966,5.151,44.161v14.721h-58.882v176.647h44.163
		v29.439h-76.136c-6.077-17.131-22.438-29.439-41.629-29.439c-24.351,0-44.161,19.811-44.161,44.161S290.283,506,314.634,506
		c19.19,0,35.552-12.308,41.629-29.44h105.575v-59.673C486.884,412.563,506,390.698,506,364.438V294.27
		C506,273.464,493.997,255.42,476.56,246.666L476.56,246.666z M314.632,476.56c-8.116,0-14.722-6.604-14.722-14.722
		s6.605-14.722,14.722-14.722c8.118,0,14.721,6.604,14.721,14.722S322.75,476.56,314.632,476.56z M93.824,388.235H58.74
		c-13.124,0-23.798-10.676-23.798-23.799V294.27c0-13.125,10.674-23.799,23.798-23.799h35.084V388.235z M400.009,152.706
		c-27.544-53.963-83.146-88.324-144.259-88.324c-61.113,0-116.714,34.359-144.257,88.324H79.11
		c28.898-69.091,97.188-117.764,176.64-117.764c79.452,0,147.742,48.673,176.639,117.765L400.009,152.706L400.009,152.706z
		 M476.56,364.438c0,13.123-10.676,23.799-23.799,23.799h-35.085V270.471h35.085c13.123,0,23.799,10.676,23.799,23.799V364.438z"/>
	<path fill="#232784" d="M358.795,373.515V241.029H152.706v132.484h64.326l38.718,34.416l38.718-34.415H358.795z M255.75,368.54
		l-27.525-24.467h-46.078v-73.603h147.205v73.603h-46.078L255.75,368.54z"/>
</g>
</svg>
