<?xml version="1.0" encoding="utf-8"?>
<!-- Generator: Adobe Illustrator 16.0.0, SVG Export Plug-In . SVG Version: 6.00 Build 0)  -->
<!DOCTYPE svg PUBLIC "-//W3C//DTD SVG 1.1//EN" "http://www.w3.org/Graphics/SVG/1.1/DTD/svg11.dtd">
<svg version="1.1" id="Capa_1" xmlns="http://www.w3.org/2000/svg" xmlns:xlink="http://www.w3.org/1999/xlink" x="0px" y="0px"
	 width="512px" height="512px" viewBox="0 0 512 512" enable-background="new 0 0 512 512" xml:space="preserve">
<g>
	<path fill="#232784" d="M481.883,246.707v-20.824C481.883,101.044,380.854,0,256,0C131.161,0,30.118,101.028,30.118,225.882v20.824
		C12.278,255.662,0,274.121,0,295.404v71.78c0,30.031,24.432,54.463,54.463,54.463h66.008V240.941H60.235
		c0.383-9.588-1.731-30.708,5.271-60.235h62.301l3.945-9.029C153.34,122.274,202.109,90.353,256,90.353
		s102.66,31.921,124.248,81.324l3.945,9.029h62.301c3.44,14.507,5.271,29.632,5.271,45.176v15.059H391.53v180.706h45.177v30.117
		h-77.885c-6.216-17.526-22.954-30.117-42.586-30.117c-24.91,0-45.176,20.266-45.176,45.176S291.326,512,316.236,512
		c19.632,0,36.369-12.591,42.586-30.117h108.001v-61.044c25.621-4.422,45.177-26.79,45.177-53.654v-71.78
		C512,274.121,499.722,255.662,481.883,246.707L481.883,246.707z M316.235,481.883c-8.304,0-15.06-6.756-15.06-15.06
		c0-8.303,6.756-15.059,15.06-15.059s15.059,6.756,15.059,15.059C331.294,475.127,324.539,481.883,316.235,481.883z M90.353,391.529
		h-35.89c-13.425,0-24.345-10.921-24.345-24.345v-71.78c0-13.425,10.92-24.346,24.345-24.346h35.89V391.529z M403.573,150.588
		C375.396,95.385,318.518,60.235,256,60.235c-62.517,0-119.396,35.149-147.572,90.353H75.302
		C104.864,79.909,174.723,30.118,256,30.118s151.137,49.792,180.697,120.471H403.573z M481.883,367.185
		c0,13.424-10.921,24.345-24.346,24.345h-35.89V271.059h35.89c13.425,0,24.346,10.921,24.346,24.346V367.185z"/>
	<path fill="#232784" d="M361.412,376.471V240.941H150.588v135.529h65.804L256,411.677l39.607-35.206H361.412z M256,371.382
		l-28.157-25.029h-47.137v-75.294h150.588v75.294h-47.137L256,371.382z"/>
</g>
</svg>
