<?xml version="1.0" encoding="utf-8"?>
<!-- Generator: Adobe Illustrator 16.0.0, SVG Export Plug-In . SVG Version: 6.00 Build 0)  -->
<!DOCTYPE svg PUBLIC "-//W3C//DTD SVG 1.0//EN" "http://www.w3.org/TR/2001/REC-SVG-20010904/DTD/svg10.dtd">
<svg version="1.0" id="Layer_1" xmlns="http://www.w3.org/2000/svg" xmlns:xlink="http://www.w3.org/1999/xlink" x="0px" y="0px"
	 width="100px" height="100px" viewBox="0 0 100 100" enable-background="new 0 0 100 100" xml:space="preserve" fill="#232784">
<path d="M66.667,43.333H60c-1.843,0-3.333-1.491-3.333-3.333H56.66h0.007c0-1.842,1.49-3.333,3.333-3.333v-0.003v0.003h6.667
	C68.509,36.667,70,38.158,70,40h6.667c0-5.521-4.479-10-10-10v-6.667H60V30l0,0c-5.521,0-10,4.479-10,10l0,0c0,5.521,4.479,10,10,10
	h6.667C68.509,50,70,51.49,70,53.333h-0.007c0,1.843-1.49,3.334-3.333,3.334H60c-1.843,0-3.333-1.491-3.333-3.334H50
	c0,5.521,4.479,10,10,10V70h6.667v-6.667c5.521-0.006,9.993-4.479,9.993-10h0.007C76.667,47.813,72.188,43.333,66.667,43.333z"/>
<path d="M16.667,10v26.667H10v6.667h6.667V90L35,83.333L53.333,90l18.334-6.667L90,90V10H16.667z M83.333,80.481L71.667,76.24
	l-18.334,6.667L35,76.24l-11.667,4.241V43.333H35.29l-5.286,5.286l4.713,4.713l10.977-10.976c1.295-1.296,1.295-3.418,0-4.714
	L34.717,26.667l-4.713,4.714l5.286,5.286H23.333v-20h60V80.481z"/>
</svg>
