<?xml version="1.0" encoding="utf-8"?>
<!-- Generator: Adobe Illustrator 16.0.0, SVG Export Plug-In . SVG Version: 6.00 Build 0)  -->
<!DOCTYPE svg PUBLIC "-//W3C//DTD SVG 1.1//EN" "http://www.w3.org/Graphics/SVG/1.1/DTD/svg11.dtd">
<svg version="1.1" id="Capa_1" xmlns="http://www.w3.org/2000/svg" xmlns:xlink="http://www.w3.org/1999/xlink" x="0px" y="0px"
	 width="512px" height="512px" viewBox="0 0 512 512" enable-background="new 0 0 512 512" xml:space="preserve">
<g>
	<path fill="#232784" d="M360.132,213.758h-41.536c-11.48,0-20.765-9.291-20.765-20.765h-0.044h0.044
		c0-11.475,9.284-20.765,20.765-20.765v-0.019v0.019h41.536c11.475,0,20.765,9.291,20.765,20.765h41.536
		c0-34.397-27.907-62.301-62.301-62.301V89.155h-41.536v41.537l0,0c-34.399,0-62.302,27.904-62.302,62.301l0,0
		c0,34.397,27.902,62.301,62.302,62.301h41.536c11.475,0,20.765,9.284,20.765,20.766h-0.042c0,11.48-9.284,20.771-20.765,20.771
		h-41.494c-11.48,0-20.765-9.291-20.765-20.771h-41.537c0,34.394,27.902,62.302,62.302,62.302v41.535h41.536v-41.535
		c34.394-0.037,62.259-27.908,62.259-62.302h0.042C422.433,241.669,394.525,213.758,360.132,213.758z"/>
	<path fill="#232784" d="M48.625,6.088v166.139H7.088v41.536h41.536V504.5l114.217-41.537L277.059,504.5l114.225-41.537L505.5,504.5
		V6.088H48.625z M463.963,445.192l-72.68-26.418l-114.225,41.536l-114.217-41.536l-72.687,26.418V213.758h74.494l-32.934,32.934
		l29.362,29.361l68.389-68.382c8.067-8.074,8.067-21.294,0-29.368l-68.389-68.376l-29.362,29.368l32.934,32.934H90.155V47.625
		h373.808V445.192z"/>
</g>
</svg>
