<?xml version="1.0" encoding="utf-8"?>
<!-- Generator: Adobe Illustrator 16.0.0, SVG Export Plug-In . SVG Version: 6.00 Build 0)  -->
<!DOCTYPE svg PUBLIC "-//W3C//DTD SVG 1.1//EN" "http://www.w3.org/Graphics/SVG/1.1/DTD/svg11.dtd">
<svg version="1.1" id="Layer_1" xmlns="http://www.w3.org/2000/svg" xmlns:xlink="http://www.w3.org/1999/xlink" x="0px" y="0px"
	 width="512px" height="512px" viewBox="0 0 512 512" enable-background="new 0 0 512 512" xml:space="preserve">
<g>
	<g>
		<g>
			<path fill="#232784" d="M364.236,42.992L357.461,3.5H147.029v39.492H42.375V509h426.516V42.992H364.236z M176.648,33.119h157.969
				v51.34H176.648V33.119z M383.982,114.078v234.979h-82.934v82.934H127.283V114.078H383.982z M376.859,378.676l-46.191,46.191
				v-46.191H376.859z M439.271,479.38H71.994V72.611h75.035v11.848H97.664v377.149h238.151l77.786-77.785V84.459h-49.365V72.611
				h75.035V479.38z"/>
		</g>
	</g>
	<g>
		<g>
			<polygon fill="#232784" points="228.586,179.838 207.644,158.896 189.977,176.561 172.31,158.896 151.368,179.838 
				169.033,197.505 151.368,215.172 172.31,236.114 189.977,218.449 207.644,236.114 228.586,215.172 210.921,197.505 			"/>
		</g>
	</g>
	<g>
		<g>
			<rect x="255.633" y="184.176" fill="#232784" width="107.616" height="29.619"/>
		</g>
	</g>
	<g>
		<g>
			<rect x="255.633" y="287.765" fill="#232784" width="107.616" height="29.618"/>
		</g>
	</g>
	<g>
		<g>
			<polygon fill="#232784" points="214.473,268.486 180.559,302.399 164.412,286.255 143.469,307.195 180.559,344.288 
				235.417,289.43 			"/>
		</g>
	</g>
</g>
</svg>
