<?xml version="1.0" encoding="utf-8"?>
<!-- Generator: Adobe Illustrator 16.0.0, SVG Export Plug-In . SVG Version: 6.00 Build 0)  -->
<!DOCTYPE svg PUBLIC "-//W3C//DTD SVG 1.1//EN" "http://www.w3.org/Graphics/SVG/1.1/DTD/svg11.dtd">
<svg version="1.1" id="Capa_1" xmlns="http://www.w3.org/2000/svg" xmlns:xlink="http://www.w3.org/1999/xlink" x="0px" y="0px"
	 width="512px" height="512px" viewBox="0 0 512 512" enable-background="new 0 0 512 512" xml:space="preserve">
<g>
	<path fill="#232784" d="M152.819,477h355.786V33.5H250.177l-97.358,97.358v50.475h-20.908l-88.7,88.7H4v177.4h148.819V477z
		 M479.038,447.434H182.386v-26.791l88.7-88.7v26.791h178.385v-29.566H273.861l47.43-47.434l-7.229-10.85
		c-22.06-33.085-68.154-39.561-98.514-13.651l-33.162,28.304v-133.77h88.7v-88.7h207.952V447.434z M203.294,122.2l38.225-38.225
		V122.2H203.294z M33.567,417.866V299.6H55.46l88.7-88.7h8.658v99.873l-9.598,8.188l19.195,22.49l72.323-61.728
		c13.544-11.558,33.432-11.889,47.326-0.574L143.344,417.866H33.567z"/>
	<path fill="#232784" d="M374.569,240.467c-8.15,0-14.784-6.633-14.784-14.784h-29.566c0,19.272,12.358,35.704,29.566,41.809V299.6
		h29.567v-32.107c17.208-6.105,29.566-22.537,29.566-41.809c0-24.454-19.896-44.35-44.35-44.35c-8.15,0-14.784-6.633-14.784-14.784
		c0-8.15,6.634-14.783,14.784-14.783c8.149,0,14.783,6.633,14.783,14.783h29.566c0-19.272-12.358-35.703-29.566-41.809V92.633
		h-29.567v32.107c-17.208,6.106-29.566,22.537-29.566,41.809c0,24.454,19.896,44.35,44.351,44.35
		c8.149,0,14.783,6.633,14.783,14.783C389.353,233.833,382.719,240.467,374.569,240.467z"/>
	<path fill="#232784" d="M271.086,388.3h178.385v29.566H271.086V388.3z"/>
</g>
</svg>
