<?xml version="1.0" encoding="utf-8"?>
<!-- Generator: Adobe Illustrator 16.0.0, SVG Export Plug-In . SVG Version: 6.00 Build 0)  -->
<!DOCTYPE svg PUBLIC "-//W3C//DTD SVG 1.1//EN" "http://www.w3.org/Graphics/SVG/1.1/DTD/svg11.dtd">
<svg version="1.1" id="Capa_1" xmlns="http://www.w3.org/2000/svg" xmlns:xlink="http://www.w3.org/1999/xlink" x="0px" y="0px"
	 width="512px" height="512px" viewBox="0 0 512 512" enable-background="new 0 0 512 512" xml:space="preserve">
<g>
	<path fill="#232784" d="M200.364,115.876h122.104v29.18H200.364V115.876z"/>
	<path fill="#232784" d="M200.364,239.548h122.104v29.179H200.364V239.548z"/>
	<path fill="#232784" d="M200.364,363.221h122.104v29.18H200.364V363.221z"/>
	<path fill="#232784" d="M393.258,301.409V6.5H6.5v498h427.969c38.079,0,70.031-29.437,70.031-65.284V301.409H393.258z
		 M36.652,475.048V35.953h327.426v403.263c0,12.714,3.887,25.306,11.009,35.832H36.652z M474.348,439.216
		c0,19.758-17.89,35.832-39.879,35.832c-21.009,0-41.211-12.702-41.211-35.832V330.589h81.09V439.216z"/>
	<path fill="#232784" d="M71.365,174.234h89.076V86.695H71.365V174.234z M100.545,115.875h30.717v29.18h-30.717V115.875z"/>
	<path fill="#232784" d="M71.365,297.907h89.076v-87.539H71.365V297.907z M100.545,239.548h30.717v29.179h-30.717V239.548z"/>
	<path fill="#232784" d="M71.365,421.581h89.076v-87.539H71.365V421.581z M100.545,363.222h30.717v29.18h-30.717V363.222z"/>
</g>
</svg>
