<?xml version="1.0" encoding="utf-8"?>
<!-- Generator: Adobe Illustrator 16.0.0, SVG Export Plug-In . SVG Version: 6.00 Build 0)  -->
<!DOCTYPE svg PUBLIC "-//W3C//DTD SVG 1.1//EN" "http://www.w3.org/Graphics/SVG/1.1/DTD/svg11.dtd">
<svg version="1.1" id="Capa_1" xmlns="http://www.w3.org/2000/svg" xmlns:xlink="http://www.w3.org/1999/xlink" x="0px" y="0px"
	 width="500px" height="300px" viewBox="0 0 500 300" enable-background="new 0 0 500 300" xml:space="preserve">
<g>
	<g>
		<g>
			<path fill="#232784" d="M386.773,156.645c0.061-0.062,0.061-0.062,0.122-0.123c0.184-0.244,0.367-0.428,0.489-0.674
				c0.062-0.061,0.062-0.122,0.123-0.184c0.123-0.244,0.307-0.49,0.429-0.734c0-0.062,0.062-0.123,0.062-0.123
				c0.122-0.244,0.244-0.489,0.367-0.795c0-0.063,0-0.063,0.061-0.123c0.123-0.245,0.184-0.551,0.307-0.857
				c0-0.061,0-0.123,0.061-0.123c0.063-0.306,0.185-0.551,0.185-0.857c0-0.121,0-0.184,0.062-0.306
				c0.061-0.245,0.061-0.489,0.122-0.735c0.062-0.367,0.062-0.673,0.062-1.041c0-0.367,0-0.673-0.062-1.041
				c0-0.245-0.062-0.49-0.122-0.735c0-0.122,0-0.184-0.062-0.306c-0.062-0.306-0.122-0.551-0.185-0.857c0-0.062,0-0.123-0.061-0.123
				c-0.061-0.306-0.184-0.551-0.307-0.857c0-0.061,0-0.061-0.061-0.123c-0.123-0.245-0.245-0.551-0.367-0.796
				c0-0.062-0.062-0.123-0.062-0.123c-0.122-0.245-0.245-0.49-0.429-0.735c-0.062-0.062-0.062-0.123-0.123-0.184
				c-0.184-0.245-0.306-0.49-0.489-0.674c-0.062-0.061-0.062-0.061-0.122-0.123c-0.246-0.245-0.43-0.551-0.735-0.796l-60.563-60.502
				c-4.104-4.103-10.777-4.103-14.881,0c-4.103,4.103-4.103,10.778,0,14.881l42.621,42.621H183.772
				c-5.817,0-10.533,4.715-10.533,10.471c0,5.818,4.715,10.533,10.533,10.533h169.504l-42.315,42.314
				c-4.103,4.104-4.103,10.778,0,14.881c2.021,2.021,4.716,3.063,7.41,3.063s5.389-1.041,7.41-3.063l60.195-60.195
				C386.283,157.135,386.527,156.889,386.773,156.645z"/>
			<path fill="#232784" d="M167.79,21.004h78.383c5.817,0,10.532-4.715,10.532-10.472C256.705,4.715,251.99,0,246.173,0H167.79
				c-31.415,0-57.012,25.597-57.012,57.012v185.977c0,31.414,25.597,57.012,57.012,57.012h77.097
				c5.817,0,10.533-4.715,10.533-10.472c0-5.817-4.716-10.532-10.533-10.532H167.79c-19.841,0-36.007-16.167-36.007-36.008V57.012
				C131.843,37.109,147.949,21.004,167.79,21.004z"/>
		</g>
	</g>
</g>
</svg>
