<?xml version="1.0" encoding="utf-8"?>
<!-- Generator: Adobe Illustrator 16.0.0, SVG Export Plug-In . SVG Version: 6.00 Build 0)  -->
<!DOCTYPE svg PUBLIC "-//W3C//DTD SVG 1.1//EN" "http://www.w3.org/Graphics/SVG/1.1/DTD/svg11.dtd">
<svg version="1.1" id="Capa_1" xmlns="http://www.w3.org/2000/svg" xmlns:xlink="http://www.w3.org/1999/xlink" x="0px" y="0px"
	 width="512px" height="512px" viewBox="0 0 512 512" enable-background="new 0 0 512 512" xml:space="preserve">
<g>
	<g>
		<g>
			<path fill="#232784" d="M256.465,8.404L2.08,110.158V502.5h95.394V248.114h317.981V502.5h95.396V110.158L256.465,8.404z
				 M479.052,470.702h-31.798V216.316H65.676v254.386H33.878V131.686l222.587-89.035l222.586,89.035V470.702z"/>
			<path fill="#232784" d="M256.465,375.307h-95.395V502.5h222.586V279.913H256.465V375.307z M256.465,470.702h-63.597v-63.597
				h63.597V470.702z M288.264,311.711h63.597v63.596h-63.597V311.711z M288.264,407.105h63.597v63.597h-63.597V407.105z"/>
			<rect x="145.172" y="136.82" fill="#232784" width="31.798" height="31.798"/>
			<rect x="208.768" y="136.82" fill="#232784" width="95.396" height="31.798"/>
			<rect x="335.96" y="136.82" fill="#232784" width="31.799" height="31.798"/>
		</g>
	</g>
</g>
</svg>
