<?xml version="1.0" encoding="utf-8"?>
<!-- Generator: Adobe Illustrator 16.0.0, SVG Export Plug-In . SVG Version: 6.00 Build 0)  -->
<!DOCTYPE svg PUBLIC "-//W3C//DTD SVG 1.1//EN" "http://www.w3.org/Graphics/SVG/1.1/DTD/svg11.dtd">
<svg version="1.1" id="Capa_1" xmlns="http://www.w3.org/2000/svg" xmlns:xlink="http://www.w3.org/1999/xlink" x="0px" y="0px"
	 width="512px" height="512px" viewBox="0 0 512 512" enable-background="new 0 0 512 512" xml:space="preserve">
<g>
	<g>
		<g>
			<rect x="211.865" y="125.643" fill="#232784" width="89.269" height="29.756"/>
		</g>
	</g>
	<g>
		<g>
			<path fill="#232784" d="M256.5,1.5L2.58,103.362v96.119l30.748-12.249V509.5h446.344V187.233l30.747,12.249v-96.119L256.5,1.5z
				 M211.866,479.744h-89.27v-90.26h29.756v29.756h29.757v-29.756h29.755L211.866,479.744L211.866,479.744z M211.866,359.728h-89.27
				v-89.269h29.756v29.756h29.757v-29.756h29.755L211.866,359.728L211.866,359.728z M330.891,479.744h-89.269v-90.26h29.756v29.756
				h29.757v-29.756h29.756V479.744L330.891,479.744z M390.402,479.744h-29.756V359.728H241.622V240.703H122.598v-26.78h267.806
				L390.402,479.744L390.402,479.744z M449.915,479.744h-29.757V184.166H92.84v295.578H63.084V175.38L256.5,98.329l193.415,77.05
				V479.744z M480.664,155.598L256.5,66.299L32.336,155.598v-32.111L256.5,33.562l224.164,89.925V155.598z"/>
		</g>
	</g>
</g>
</svg>
